<svg xmlns="http://www.w3.org/2000/svg" viewBox="0 0 1600 700">

  <defs>
    <linearGradient id="flowGrad" x1="0%" y1="0%" x2="100%" y2="0%">
      <stop offset="0%" stop-color="#1f2937"/>
      <stop offset="100%" stop-color="#0b1220"/>
    </linearGradient>
  </defs>

  <!-- MAIN FLOW SHAPE -->
  <path d="M120 430 
           C260 200, 520 560, 820 360 
           S1300 200, 1500 340 
           L1500 470 
           C1280 560, 980 440, 820 520 
           S300 580, 120 500 Z"
        fill="url(#flowGrad)"/>

  <!-- ================= LEFT: INDUSTRIAL ================= -->

  <!-- Factory Building -->
  <rect x="220" y="230" width="190" height="110" rx="6" fill="#334155"/>
  <rect x="245" y="190" width="30" height="50" fill="#475569"/>
  <rect x="285" y="175" width="30" height="65" fill="#475569"/>
  <rect x="325" y="205" width="30" height="35" fill="#475569"/>

  <!-- Windows -->
  <rect x="255" y="265" width="28" height="28" fill="#facc15"/>
  <rect x="300" y="265" width="28" height="28" fill="#facc15"/>
  <rect x="345" y="265" width="28" height="28" fill="#facc15"/>

  <!-- Gears -->
  <g fill="#94a3b8">
    <circle cx="470" cy="340" r="28"/>
    <circle cx="520" cy="365" r="20"/>
  </g>
  <circle cx="555" cy="330" r="16" fill="#f59e0b"/>

  <!-- Robotic Arm Base -->
  <rect x="170" y="360" width="36" height="85" rx="6" fill="#f59e0b"/>
  <circle cx="188" cy="350" r="20" fill="#fbbf24"/>

  <!-- Arm Segments -->
  <rect x="188" y="330" width="95" height="20" rx="10" transform="rotate(25 188 330)" fill="#f59e0b"/>
  <circle cx="280" cy="300" r="16" fill="#fbbf24"/>
  <rect x="280" y="290" width="85" height="18" rx="9" transform="rotate(-35 280 290)" fill="#f59e0b"/>

  <!-- Conveyor Belt -->
  <rect x="240" y="410" width="180" height="14" rx="7" fill="#1e293b"/>
  <rect x="260" y="380" width="55" height="38" rx="4" fill="#f97316"/>
  <rect x="325" y="380" width="55" height="38" rx="4" fill="#fb923c"/>

  <!-- ================= CENTER: PERSON ================= -->

  <!-- Head -->
  <circle cx="860" cy="240" r="34" fill="#ffccaa"/>

  <!-- Body -->
  <rect x="820" y="275" width="80" height="120" rx="14" fill="#22c55e"/>

  <!-- Device -->
  <rect x="840" y="305" width="42" height="65" rx="8" fill="#ffffff"/>
  <circle cx="861" cy="315" r="5" fill="#22c55e"/>

  <!-- Legs -->
  <rect x="835" y="395" width="26" height="100" rx="6" fill="#1f2937"/>
  <rect x="875" y="395" width="26" height="100" rx="6" fill="#1f2937"/>

  <!-- ================= RIGHT: IT ================= -->

  <!-- Monitor -->
  <rect x="1120" y="260" width="200" height="120" rx="14" fill="#1e293b"/>
  <rect x="1140" y="285" width="160" height="12" rx="6" fill="#22d3ee"/>
  <rect x="1140" y="305" width="130" height="10" rx="5" fill="#38bdf8"/>
  <rect x="1140" y="322" width="100" height="10" rx="5" fill="#818cf8"/>

  <!-- Cloud -->
  <g fill="#7dd3fc">
    <circle cx="1260" cy="190" r="26"/>
    <circle cx="1295" cy="190" r="34"/>
    <circle cx="1330" cy="190" r="26"/>
  </g>

  <!-- WiFi Icon (Correct Arcs) -->
  <path d="M1040 205 Q1070 175 1100 205" stroke="#22d3ee" stroke-width="6" fill="none" stroke-linecap="round"/>
  <path d="M1055 220 Q1070 205 1085 220" stroke="#22d3ee" stroke-width="6" fill="none" stroke-linecap="round"/>
  <circle cx="1070" cy="235" r="6" fill="#22d3ee"/>

  <!-- Circuit Connection -->
  <path d="M930 330 H1120" stroke="#22c55e" stroke-width="5" stroke-linecap="round"/>
  <circle cx="930" cy="330" r="7" fill="#22c55e"/>

</svg>
